<?xml version="1.0" encoding="UTF-8" standalone="no"?>
<!-- Created with Inkscape (http://www.inkscape.org/) -->

<svg
   version="1.1"
   id="svg182"
   width="1262.4343"
   height="429.37326"
   viewBox="0 0 1262.4343 429.37326"
   sodipodi:docname="logoNav.svg"
   inkscape:version="1.2.1 (9c6d41e410, 2022-07-14)"
   xmlns:inkscape="http://www.inkscape.org/namespaces/inkscape"
   xmlns:sodipodi="http://sodipodi.sourceforge.net/DTD/sodipodi-0.dtd"
   xmlns="http://www.w3.org/2000/svg"
   xmlns:svg="http://www.w3.org/2000/svg">
  <defs
     id="defs186" />
  <sodipodi:namedview
     id="namedview184"
     pagecolor="#ffffff"
     bordercolor="#666666"
     borderopacity="1.0"
     inkscape:showpageshadow="2"
     inkscape:pageopacity="0.0"
     inkscape:pagecheckerboard="0"
     inkscape:deskcolor="#d1d1d1"
     showgrid="false"
     inkscape:zoom="0.39746094"
     inkscape:cx="133.34644"
     inkscape:cy="191.21376"
     inkscape:window-width="1920"
     inkscape:window-height="1017"
     inkscape:window-x="-8"
     inkscape:window-y="-8"
     inkscape:window-maximized="1"
     inkscape:current-layer="g188" />
  <g
     inkscape:groupmode="layer"
     inkscape:label="Image"
     id="g188"
     transform="translate(-106.93503,-47.093664)">
    <path
       id="path456"
       style="display:inline;fill:#ffffff;fill-rule:evenodd;stroke:none;stroke-width:1.4969;stroke-linecap:round"
       class="UnoptimicedTransforms"
       d="M 1079.9648,-74.742188 C 970.18957,-75.119675 865.01337,-4.5167265 822.46094,96.480469 776.63036,198.95971 798.82497,327.22677 877.15234,407.82422 c 73.93132,80.0685 196.13366,110.07699 298.60356,72.57617 110.5267,-37.23148 189.6923,-148.25407 190.5078,-264.64844 3.5216,-116.171117 -71.5976,-229.653576 -180.4199,-270.865231 -32.7972,-12.929404 -68.0309,-19.620329 -103.2852,-19.607422 -0.8649,-0.01179 -1.7294,-0.01851 -2.5938,-0.02148 z m 8.7559,118.97461 c 12.2761,8.827844 20.3941,22.550249 30.6445,33.669922 16.6162,-3.159766 16.8412,-37.946783 30.9063,-29.681641 23.1387,65.345247 63.7757,123.798747 80.6094,191.414067 11.2976,48.1106 -11.6856,106.16225 -61.2911,121.97656 -51.9687,20.421 -123.9254,4.3668 -145.8183,-51.68555 -14.499,-42.04442 -0.7027,-87.153 10.7656,-128.30859 15.9224,-46.05305 32.1649,-92.274328 51.8516,-136.808596 l 1.1347,-0.529297 z M 1098,76.984375 c -9.7998,25.441905 -8.9891,54.537525 -19.0254,80.386715 -11.2981,41.63593 -30.8529,81.58176 -34.6172,124.88672 -3.6189,20.82413 23.6262,62.42668 33.2207,58.47461 -19.6285,-41.89725 -8.4483,-89.54515 -2.4726,-133.28906 5.6564,-35.04443 13.8497,-69.59603 28.2363,-102.14648 3.3293,-9.92075 3.3273,-21.100862 -5.3418,-28.312505 z m 43.1367,6.998047 c -27.3346,24.166518 -38.4703,62.077718 -45.7832,96.923828 -8.1691,44.37867 -16.7407,90.12681 -10.4336,135.21289 3.9701,30.79997 33.4484,45.28327 61.0781,34.42969 34.3259,-5.7431 62.8791,-37.91745 57.9141,-73.64649 -6.225,-59.89632 -34.5725,-114.46595 -50.8809,-171.89453 -2.9657,-7.182411 -3.7443,-17.68754 -11.8945,-21.025388 z M 960.82422,331.11523 c 2.14524,-0.01 4.29178,0.0218 6.4375,0.0977 56.92548,1.42983 115.45548,33.15154 141.55858,84.42188 -25.5676,-4.03644 -38.0184,-33.99579 -62.3086,-46.81836 -58.50064,-30.88197 -135.43833,-31.06388 -184.60936,14.06054 -12.46325,-7.38081 1.64981,-18.45949 7.74414,-24.45898 22.60886,-22.25702 58.99907,-27.15357 91.17774,-27.30274 z m 159.09378,43.99805 c 0.5735,0.0826 1.1247,0.29394 1.709,0.64453 0.5843,0.3506 1.2029,0.83985 1.9101,1.47461 l 2.5059,2.25 -0.7012,18 -0.7012,18 -4.5,0.29492 c -1.006,0.0657 -1.8918,0.10952 -2.6738,0.10352 -0.782,-0.006 -1.4592,-0.0631 -2.0469,-0.20117 -0.5876,-0.13812 -1.0866,-0.35729 -1.5097,-0.6875 -0.4231,-0.33021 -0.7703,-0.77109 -1.0586,-1.35352 -0.2883,-0.58243 -0.5179,-1.30641 -0.7012,-2.20117 -0.1833,-0.89476 -0.3217,-1.9613 -0.4297,-3.22852 -0.216,-2.53443 -0.3113,-5.87283 -0.4043,-10.25781 -0.088,-4.13752 -0.1112,-7.45547 -0.031,-10.13281 0.08,-2.67734 0.2611,-4.71419 0.582,-6.29297 0.1604,-0.78939 0.3573,-1.46432 0.5918,-2.04687 0.2345,-0.58256 0.5083,-1.07324 0.8262,-1.49414 0.3178,-0.42092 0.6795,-0.77169 1.0898,-1.07618 0.4103,-0.30448 0.8689,-0.56166 1.3809,-0.79492 0.8888,-0.40496 1.6413,-0.69792 2.3164,-0.86719 0.6751,-0.16931 1.2721,-0.21541 1.8457,-0.13281 z"
       sodipodi:nodetypes="cccccccsccccccccccccccccccscccccsscsccssscccccssssssccsssssssscc"
       transform="matrix(0.75175233,0,0,0.75175233,-493.58497,103.28241)" />
    <text
       xml:space="preserve"
       style="font-weight:bold;font-size:144.07px;line-height:1.25;font-family:'Berlin Sans FB Demi';-inkscape-font-specification:'Berlin Sans FB Demi Bold';text-align:center;text-anchor:middle;stroke-width:1.92952;fill:#ffffff"
       x="990.62286"
       y="365.04922"
       id="text709"><tspan
         sodipodi:role="line"
         id="tspan707"
         x="990.62286"
         y="365.04922"
         style="font-size:144.07px;stroke-width:1.92952;fill:#ffffff">Le Parfum's</tspan></text>
  </g>
</svg>
